<svg width="1198.1849609375px" height="300.330078125px" xmlns="http://www.w3.org/2000/svg" viewBox="-349.09248046874995 -75.1650390625 1198.1849609375 300.330078125" style="background-color: rgba(0, 0, 0, 0);" preserveAspectRatio="xMidYMid"><defs><filter id="editing-metal-beveled"><feGaussianBlur stdDeviation="4" in="SourceAlpha" result="blur"></feGaussianBlur><feSpecularLighting surfaceScale="5" specularConstant="0.8" specularExponent="7.5" lighting-color="#f4f0f0" in="blur" result="specular"><fePointLight x="-250" y="-50" z="300"></fePointLight></feSpecularLighting><feComposite operator="in" in="specular" in2="SourceAlpha" result="comp"></feComposite><feComposite in="SourceGraphic" in2="comp" operator="arithmetic" k1="0" k2="1" k3="1" k4="0"></feComposite></filter></defs><g filter="url(#editing-metal-beveled)"><g transform="translate(-182.56498050689697, 136.97000122070312)"><path d="M70.88-122.61L70.88-122.61L70.88-122.61Q98.09-122.61 109.32-112.40L109.32-112.40L109.32-112.40Q111.06-114.38 112.80-121.03L112.80-121.03L119.21-121.03L119.21-87.88L112.48-87.88L112.48-87.88Q108.69-102.04 98.09-109.04L98.09-109.04L98.09-109.04Q87.49-116.04 72.54-116.04L72.54-116.04L72.54-116.04Q44.77-116.04 35.60-87.64L35.60-87.64L35.60-87.64Q30.06-70.56 32.91-47.62L32.91-47.62L32.91-47.62Q36.94-15.66 59.48-7.28L59.48-7.28L59.48-7.28Q65.81-4.98 72.93-4.98L72.93-4.98L72.93-4.98Q80.05-4.98 85.03-6.25L85.03-6.25L85.03-6.25Q90.02-7.51 93.70-9.37L93.70-9.37L93.70-9.37Q97.37-11.23 99.51-13.33L99.51-13.33L99.51-13.33Q101.65-15.42 101.88-17.09L101.88-17.09L101.88-47.54L81.24-47.54L81.24-53.71L131.23-53.71L131.23-47.54L121.03-47.54L121.03-15.19L121.03-15.19Q116.20-8.46 102.20-3.44L102.20-3.44L102.20-3.44Q88.20 1.58 73.29 1.58L73.29 1.58L73.29 1.58Q58.38 1.58 46.23-3.28L46.23-3.28L46.23-3.28Q34.09-8.15 25.71-16.61L25.71-16.61L25.71-16.61Q8.46-34.01 8.46-60.08L8.46-60.08L8.46-60.08Q8.46-86.14 25.79-103.94L25.79-103.94L25.79-103.94Q37.26-115.80 54.42-120.31L54.42-120.31L54.42-120.31Q63.12-122.61 70.88-122.61ZM205.27 0L205.27-7.75L205.27-7.75Q194.75 1.58 182.53 1.58L182.53 1.58L182.53 1.58Q170.31 1.58 161.84-3.32L161.84-3.32L161.84-3.32Q150.13-10.20 150.13-26.34L150.13-26.34L150.13-74.75L138.90-74.75L138.90-80.92L170.70-80.92L170.70-22.70L170.70-22.70Q170.70-6.01 186.13-6.01L186.13-6.01L186.13-6.01Q196.80-6.01 205.27-15.82L205.27-15.82L205.27-74.75L191.58-74.75L191.58-80.92L225.68-80.92L225.68-6.17L235.88-6.17L235.88 0L205.27 0ZM264.20-5.77L264.20-5.77L264.20-5.77Q261.67-4.03 261.35 0L261.35 0L253.76 0L254.07-23.81L261.35-23.81L261.35-23.81Q261.35-17.72 268.98-11.31L268.98-11.31L268.98-11.31Q276.62-4.90 288.33-4.90L288.33-4.90L288.33-4.90Q300.03-4.90 303.20-11.71L303.20-11.71L303.20-11.71Q304.07-13.68 304.07-15.82L304.07-15.82L304.07-15.82Q304.07-19.78 298.65-23.10L298.65-23.10L298.65-23.10Q293.23-26.42 280.85-30.85L280.85-30.85L280.85-30.85Q268.47-35.28 261.35-42.28L261.35-42.28L261.35-42.28Q254.23-49.28 254.23-59.37L254.23-59.37L254.23-59.37Q254.23-69.45 263.25-75.86L263.25-75.86L263.25-75.86Q272.27-82.27 284.09-82.27L284.09-82.27L284.09-82.27Q295.92-82.27 303.12-76.41L303.12-76.41L303.12-76.41Q305.33-77.12 306.60-79.89L306.60-79.89L306.60-79.89Q307.07-80.84 307.07-82.19L307.07-82.19L313.08-82.19L313.08-60.12L306.12-60.12L306.12-60.12Q304.78-67.55 298.96-71.71L298.96-71.71L298.96-71.71Q293.15-75.86 285.32-75.86L285.32-75.86L285.32-75.86Q277.49-75.86 273.26-72.81L273.26-72.81L273.26-72.81Q269.02-69.77 269.02-65.42L269.02-65.42L269.02-65.42Q269.02-61.07 273.89-57.47L273.89-57.47L273.89-57.47Q278.75-53.87 287.65-50.74L287.65-50.74L287.65-50.74Q296.55-47.62 301.61-45.25L301.61-45.25L301.61-45.25Q317.83-37.42 317.83-22.58L317.83-22.58L317.83-22.58Q317.83-7.75 301.22-1.03L301.22-1.03L301.22-1.03Q294.73 1.58 288.01 1.58L288.01 1.58L288.01 1.58Q274.01 1.58 264.20-5.77ZM366.40 1.58L366.40 1.58L366.40 1.58Q338.16 1.58 338.16-24.68L338.16-24.68L338.16-74.75L328.59-74.75L328.59-80.92L338.16-80.92L338.16-105.13L338.16-105.13Q345.36-105.13 355.72-108.84L355.72-108.84L355.72-108.84Q358.09-109.71 359.12-110.35L359.12-110.35L359.12-80.92L385.15-80.92L385.15-74.75L359.12-74.75L359.12-18.98L359.12-18.98Q359.12-11.71 362.17-8.50L362.17-8.50L362.17-8.50Q365.21-5.30 370.27-5.30L370.27-5.30L370.27-5.30Q378.18-5.30 384.51-12.34L384.51-12.34L388.71-8.62L388.71-8.62Q383.01-1.58 373.20 0.79L373.20 0.79L373.20 0.79Q369.96 1.58 366.40 1.58ZM452.07-8.94L452.07-8.94L452.07-8.94Q442.89 1.58 427.46 1.58L427.46 1.58L427.46 1.58Q415.76 1.58 407.29-4.94L407.29-4.94L407.29-4.94Q398.83-11.47 398.83-22.03L398.83-22.03L398.83-22.03Q398.83-32.59 407.14-38.64L407.14-38.64L407.14-38.64Q415.44-44.69 428.53-44.69L428.53-44.69L428.53-44.69Q441.62-44.69 450.40-38.13L450.40-38.13L450.40-56.95L450.40-56.95Q450.40-66.52 448.03-69.93L448.03-69.93L448.03-69.93Q445.66-73.33 442.45-74.67L442.45-74.67L442.45-74.67Q439.25-76.02 435.38-76.02L435.38-76.02L435.38-76.02Q429.28-76.02 425.09-74.63L425.09-74.63L425.09-74.63Q420.90-73.25 419.48-71.82L419.48-71.82L419.48-71.82Q423.11-70.72 425.09-66.29L425.09-66.29L425.09-66.29Q425.72-64.71 425.72-62.49L425.72-62.49L425.72-62.49Q425.72-58.14 422.56-55.25L422.56-55.25L422.56-55.25Q419.40-52.37 416.23-52.37L416.23-52.37L416.23-52.37Q410.70-52.37 407.61-55.29L407.61-55.29L407.61-55.29Q404.53-58.22 404.53-62.33L404.53-62.33L404.53-62.33Q404.53-66.45 406.03-69.10L406.03-69.10L406.03-69.10Q407.53-71.75 410.06-73.88L410.06-73.88L410.06-73.88Q414.89-77.92 422.20-80.05L422.20-80.05L422.20-80.05Q429.52-82.19 435.93-82.19L435.93-82.19L435.93-82.19Q453.73-82.19 462.27-74.99L462.27-74.99L462.27-74.99Q470.81-67.79 470.81-54.90L470.81-54.90L470.81-12.74L470.81-12.74Q470.81-6.17 474.06-6.17L474.06-6.17L474.06-6.17Q477.30-6.17 480.30-10.13L480.30-10.13L484.42-6.72L484.42-6.72Q479.04 1.42 466.86 1.42L466.86 1.42L466.86 1.42Q462.59 1.42 458.20-1.27L458.20-1.27L458.20-1.27Q453.81-3.96 452.07-8.94ZM450.64-15.27L450.64-31.09L450.64-31.09Q443.92-37.65 435.93-37.65L435.93-37.65L435.93-37.65Q427.94-37.65 423.91-33.90L423.91-33.90L423.91-33.90Q419.87-30.14 419.87-21.83L419.87-21.83L419.87-21.83Q419.87-9.57 428.49-6.96L428.49-6.96L428.49-6.96Q430.95-6.17 433.48-6.17L433.48-6.17L433.48-6.17Q440.67-6.17 447.24-11.71L447.24-11.71L447.24-11.71Q449.14-13.37 450.64-15.27L450.64-15.27ZM530.77 1.58L494.23-74.75L486-74.75L486-80.92L527.69-80.92L527.69-74.75L517.48-74.75L541.21-20.41L562.57-74.75L551.89-74.75L551.89-80.92L580.68-80.92L580.68-74.75L570.40-74.75L539.08 1.58L530.77 1.58ZM586.30-40.50L586.30-40.50L586.30-40.50Q586.30-59.17 598.17-70.72L598.17-70.72L598.17-70.72Q610.03-82.27 628.03-82.27L628.03-82.27L628.03-82.27Q646.02-82.27 657.69-70.76L657.69-70.76L657.69-70.76Q669.36-59.25 669.36-40.54L669.36-40.54L669.36-40.54Q669.36-21.83 657.77-10.13L657.77-10.13L657.77-10.13Q646.18 1.58 628.07 1.58L628.07 1.58L628.07 1.58Q609.95 1.58 598.13-10.13L598.13-10.13L598.13-10.13Q586.30-21.83 586.30-40.50ZM627.83-4.98L627.83-4.98L627.83-4.98Q643.81-4.98 646.58-26.74L646.58-26.74L646.58-26.74Q647.37-33.22 647.37-40.66L647.37-40.66L647.37-40.66Q647.37-57.35 643.57-65.65L643.57-65.65L643.57-65.65Q638.90-75.62 627.83-75.62L627.83-75.62L627.83-75.62Q611.85-75.62 609.08-54.58L609.08-54.58L609.08-54.58Q608.29-48.17 608.29-40.66L608.29-40.66L608.29-40.66Q608.29-23.89 612.09-15.35L612.09-15.35L612.09-15.35Q616.83-4.98 627.83-4.98ZM689.45-11.15L689.45-11.15L689.45-11.15Q689.45-19.62 697.04-22.94L697.04-22.94L697.04-22.94Q699.34-23.89 702.03-23.89L702.03-23.89L702.03-23.89Q707.41-23.89 711.04-20.25L711.04-20.25L711.04-20.25Q714.68-16.61 714.68-11.19L714.68-11.19L714.68-11.19Q714.68-5.77 711.08-2.18L711.08-2.18L711.08-2.18Q707.48 1.42 702.07 1.42L702.07 1.42L702.07 1.42Q696.65 1.42 693.05-2.18L693.05-2.18L693.05-2.18Q689.45-5.77 689.45-11.15ZM743.55-30.02L743.55-30.02L743.55-30.02Q740.23-36.94 738.53-44.73L738.53-44.73L738.53-44.73Q736.83-52.52 736.83-60.47L736.83-60.47L736.83-60.47Q736.83-68.42 738.53-76.06L738.53-76.06L738.53-76.06Q740.23-83.69 743.55-90.57L743.55-90.57L743.55-90.57Q750.52-105.05 764.08-113.83L764.08-113.83L764.08-113.83Q777.65-122.61 796.71-122.61L796.71-122.61L796.71-122.61Q825.66-122.61 842.04-103.31L842.04-103.31L842.04-103.31Q856.67-85.90 856.67-60.28L856.67-60.28L856.67-60.28Q856.67-34.65 841.88-17.24L841.88-17.24L841.88-17.24Q831.75-5.38 815.22-0.79L815.22-0.79L815.22-0.79Q806.84 1.58 796.83 1.58L796.83 1.58L796.83 1.58Q786.82 1.58 778.52-0.75L778.52-0.75L778.52-0.75Q770.21-3.08 763.57-7.28L763.57-7.28L763.57-7.28Q756.92-11.47 751.90-17.28L751.90-17.28L751.90-17.28Q746.88-23.10 743.55-30.02ZM825.27-23.41L825.27-23.41L825.27-23.41Q828.27-28.87 831.08-38.05L831.08-38.05L831.08-38.05Q833.89-47.22 833.89-57.31L833.89-57.31L833.89-57.31Q833.89-67.39 832.98-74.16L832.98-74.16L832.98-74.16Q832.07-80.92 830.17-87.01L830.17-87.01L830.17-87.01Q825.98-100.14 817.63-108.09L817.63-108.09L817.63-108.09Q809.29-116.04 796.71-116.04L796.71-116.04L796.71-116.04Q777.09-116.04 767.52-98.48L767.52-98.48L767.52-98.48Q759.38-83.37 759.65-60.95L759.65-60.95L759.65-60.95Q759.93-38.52 767.84-23.41L767.84-23.41L767.84-23.41Q777.65-4.98 796.39-4.98L796.39-4.98L796.39-4.98Q815.14-4.98 825.27-23.41Z" fill="#fbf3f3"></path></g></g><style>text {
  font-size: 64px;
  font-family: Arial Black;
  dominant-baseline: central;
  text-anchor: middle;
}</style></svg>